<svg width="462" height="143" viewBox="0 0 462 143" fill="none" xmlns="http://www.w3.org/2000/svg">
<g clip-path="url(#clip0_63_20)">
<path d="M154.859 104L141.003 78.8511H137.112V104H120.884V37.379H148.121C153.372 37.379 157.832 38.2964 161.502 40.1312C165.235 41.9659 168.018 44.4967 169.853 47.7233C171.688 50.8867 172.605 54.4297 172.605 58.3523C172.605 62.781 171.34 66.7353 168.809 70.215C166.342 73.6947 162.672 76.1622 157.801 77.6173L173.175 104H154.859ZM137.112 67.368H147.172C150.145 67.368 152.36 66.6404 153.815 65.1852C155.333 63.7301 156.092 61.6739 156.092 59.0166C156.092 56.4859 155.333 54.493 153.815 53.0378C152.36 51.5827 150.145 50.8551 147.172 50.8551H137.112V67.368ZM232.711 76.6683C232.711 78.1867 232.616 79.7684 232.426 81.4134H195.699C195.952 84.7033 196.996 87.234 198.831 89.0055C200.729 90.7138 203.038 91.5679 205.759 91.5679C209.808 91.5679 212.623 89.8597 214.205 86.4432H231.477C230.591 89.9229 228.978 93.0547 226.637 95.8385C224.359 98.6222 221.481 100.805 218.001 102.387C214.521 103.968 210.63 104.759 206.328 104.759C201.14 104.759 196.522 103.652 192.472 101.438C188.423 99.2233 185.26 96.0599 182.982 91.9475C180.705 87.8351 179.566 83.0267 179.566 77.5224C179.566 72.0181 180.673 67.2098 182.887 63.0974C185.165 58.985 188.328 55.8216 192.377 53.6072C196.427 51.3928 201.077 50.2857 206.328 50.2857C211.453 50.2857 216.008 51.3612 219.994 53.5123C223.98 55.6634 227.08 58.7319 229.294 62.7178C231.572 66.7036 232.711 71.3538 232.711 76.6683ZM216.103 72.3977C216.103 69.614 215.154 67.3996 213.256 65.7546C211.358 64.1097 208.985 63.2872 206.138 63.2872C203.418 63.2872 201.108 64.078 199.21 65.6597C197.376 67.2414 196.237 69.4874 195.794 72.3977H216.103ZM257.5 33.7728V104H241.272V33.7728H257.5ZM293.365 104.759C288.177 104.759 283.496 103.652 279.32 101.438C275.208 99.2233 271.949 96.0599 269.545 91.9475C267.204 87.8351 266.034 83.0267 266.034 77.5224C266.034 72.0814 267.236 67.3047 269.64 63.1923C272.044 59.0166 275.334 55.8216 279.51 53.6072C283.685 51.3928 288.367 50.2857 293.555 50.2857C298.743 50.2857 303.425 51.3928 307.601 53.6072C311.776 55.8216 315.066 59.0166 317.47 63.1923C319.875 67.3047 321.077 72.0814 321.077 77.5224C321.077 82.9635 319.843 87.7718 317.376 91.9475C314.971 96.0599 311.65 99.2233 307.411 101.438C303.235 103.652 298.553 104.759 293.365 104.759ZM293.365 90.7138C296.466 90.7138 299.091 89.5749 301.242 87.2973C303.457 85.0197 304.564 81.7614 304.564 77.5224C304.564 73.2835 303.488 70.0252 301.337 67.7476C299.249 65.4699 296.655 64.3311 293.555 64.3311C290.392 64.3311 287.766 65.4699 285.678 67.7476C283.591 69.9619 282.547 73.2202 282.547 77.5224C282.547 81.7614 283.559 85.0197 285.584 87.2973C287.671 89.5749 290.265 90.7138 293.365 90.7138ZM326.459 77.4275C326.459 71.9865 327.472 67.2098 329.496 63.0974C331.584 58.985 334.4 55.8216 337.943 53.6072C341.486 51.3928 345.44 50.2857 349.805 50.2857C353.538 50.2857 356.796 51.0449 359.58 52.5633C362.427 54.0817 364.61 56.0747 366.128 58.5421V51.0449H382.357V104H366.128V96.5028C364.547 98.9702 362.332 100.963 359.485 102.482C356.701 104 353.443 104.759 349.71 104.759C345.408 104.759 341.486 103.652 337.943 101.438C334.4 99.16 331.584 95.965 329.496 91.8526C327.472 87.6769 326.459 82.8686 326.459 77.4275ZM366.128 77.5224C366.128 73.4733 364.99 70.2783 362.712 67.9374C360.497 65.5965 357.777 64.426 354.55 64.426C351.324 64.426 348.572 65.5965 346.294 67.9374C344.08 70.215 342.972 73.3784 342.972 77.4275C342.972 81.4767 344.08 84.7033 346.294 87.1075C348.572 89.4484 351.324 90.6189 354.55 90.6189C357.777 90.6189 360.497 89.4484 362.712 87.1075C364.99 84.7666 366.128 81.5716 366.128 77.5224ZM390.87 77.4275C390.87 71.9865 391.883 67.2098 393.907 63.0974C395.995 58.985 398.81 55.8216 402.353 53.6072C405.896 51.3928 409.851 50.2857 414.216 50.2857C417.696 50.2857 420.859 51.0132 423.706 52.4684C426.617 53.9236 428.894 55.8849 430.539 58.3523V33.7728H446.767V104H430.539V96.4079C429.021 98.9386 426.838 100.963 423.991 102.482C421.207 104 417.949 104.759 414.216 104.759C409.851 104.759 405.896 103.652 402.353 101.438C398.81 99.16 395.995 95.965 393.907 91.8526C391.883 87.6769 390.87 82.8686 390.87 77.4275ZM430.539 77.5224C430.539 73.4733 429.4 70.2783 427.123 67.9374C424.908 65.5965 422.188 64.426 418.961 64.426C415.734 64.426 412.982 65.5965 410.705 67.9374C408.49 70.215 407.383 73.3784 407.383 77.4275C407.383 81.4767 408.49 84.7033 410.705 87.1075C412.982 89.4484 415.734 90.6189 418.961 90.6189C422.188 90.6189 424.908 89.4484 427.123 87.1075C429.4 84.7666 430.539 81.5716 430.539 77.5224Z" fill="white"/>
</g>
<g clip-path="url(#clip1_63_20)">
<rect y="23" width="98" height="98" rx="14" fill="white"/>
<path d="M98 121H0V23H98V121Z" stroke="#E5E7EB"/>
<g filter="url(#filter0_dd_63_20)">
<path d="M0 44C0 32.402 9.40202 23 21 23H77C88.598 23 98 32.402 98 44V100C98 111.598 88.598 121 77 121H21C9.40202 121 0 111.598 0 100V44Z" fill="url(#paint0_linear_63_20)"/>
<path d="M73.3661 65.5596C72.6737 68.8181 71.354 71.6963 69.5 74.1465C69.203 74.5387 68.8924 74.9205 68.5684 75.2907C66.3922 77.7808 63.6125 79.7691 60.3462 81.2006L67.7229 96.7688H52.7193L46.5308 83.6064H38.886L36.088 96.7688H22.0769L24.5917 84.9357C25.9783 78.4122 29.0339 70.6712 41.6354 70.6712L40.4596 76.2026L60.8778 65.5243L44.9989 54.8459L43.8231 60.3796C37.0054 60.3796 31.8859 63.2931 28.4042 66.9989L32.6063 47.2305H55.2529C68.7705 47.2305 75.7728 54.2365 73.3661 65.5596Z" fill="white"/>
<mask id="mask0_63_20" style="mask-type:luminance" maskUnits="userSpaceOnUse" x="22" y="65" width="48" height="32">
<path d="M60.3462 81.1984L67.7229 96.7666H52.7193L46.5308 83.6042H38.886L36.088 96.7666H22.0769L24.5917 84.9335C25.9783 78.41 29.0339 70.669 41.6354 70.669L40.4596 76.2004L60.8778 65.5221L69.5 74.1443C69.203 74.5365 68.8924 74.9183 68.5684 75.2885C66.3922 77.7786 63.6125 79.7669 60.3462 81.1984Z" fill="white"/>
</mask>
<g mask="url(#mask0_63_20)">
<path d="M60.3462 81.1984L67.7229 96.7666H52.7193L46.5308 83.6042H38.886L36.088 96.7666H22.0769L24.5917 84.9335C25.9783 78.41 29.0339 70.669 41.6354 70.669L40.4596 76.2004L60.8778 65.5221L69.5 74.1443C69.203 74.5365 68.8924 74.9183 68.5684 75.2885C66.3922 77.7786 63.6125 79.7669 60.3462 81.1984Z" fill="url(#paint1_radial_63_20)"/>
</g>
</g>
</g>
<rect x="1.75" y="24.75" width="94.5" height="94.5" rx="12.25" stroke="#CED4DA" stroke-width="3.5"/>
<defs>
<filter id="filter0_dd_63_20" x="-26.25" y="14.25" width="150.5" height="150.5" filterUnits="userSpaceOnUse" color-interpolation-filters="sRGB">
<feFlood flood-opacity="0" result="BackgroundImageFix"/>
<feColorMatrix in="SourceAlpha" type="matrix" values="0 0 0 0 0 0 0 0 0 0 0 0 0 0 0 0 0 0 127 0" result="hardAlpha"/>
<feOffset dy="17.5"/>
<feGaussianBlur stdDeviation="13.125"/>
<feColorMatrix type="matrix" values="0 0 0 0 0 0 0 0 0 0 0 0 0 0 0 0 0 0 0.1 0"/>
<feBlend mode="normal" in2="BackgroundImageFix" result="effect1_dropShadow_63_20"/>
<feColorMatrix in="SourceAlpha" type="matrix" values="0 0 0 0 0 0 0 0 0 0 0 0 0 0 0 0 0 0 127 0" result="hardAlpha"/>
<feOffset dy="7"/>
<feGaussianBlur stdDeviation="5.25"/>
<feColorMatrix type="matrix" values="0 0 0 0 0 0 0 0 0 0 0 0 0 0 0 0 0 0 0.1 0"/>
<feBlend mode="normal" in2="effect1_dropShadow_63_20" result="effect2_dropShadow_63_20"/>
<feBlend mode="normal" in="SourceGraphic" in2="effect2_dropShadow_63_20" result="shape"/>
</filter>
<linearGradient id="paint0_linear_63_20" x1="0" y1="72" x2="98" y2="72" gradientUnits="userSpaceOnUse">
<stop/>
<stop offset="1" stop-color="#25252E"/>
</linearGradient>
<radialGradient id="paint1_radial_63_20" cx="0" cy="0" r="1" gradientUnits="userSpaceOnUse" gradientTransform="translate(42.1303 67.6153) rotate(45) scale(25.3835)">
<stop stop-color="#DADADA"/>
<stop offset="1" stop-color="#F6F6F6"/>
</radialGradient>
<clipPath id="clip0_63_20">
<rect width="361.844" height="142.688" fill="white" transform="translate(100.102)"/>
</clipPath>
<clipPath id="clip1_63_20">
<rect y="23" width="98" height="98" rx="14" fill="white"/>
</clipPath>
</defs>
</svg>
